<svg id="Ñëîé_1" data-name="Ñëîé 1" xmlns="http://www.w3.org/2000/svg" viewBox="0 0 600 450"><defs><style>.cls-1,.cls-9{fill:#173d7a;}.cls-1{opacity:0.5;}.cls-14,.cls-2{fill:#d4ecff;}.cls-3{fill:#5793ce;}.cls-4{fill:#79b1e0;}.cls-5{fill:#fff;}.cls-6{fill:#ff2c9c;}.cls-7{fill:#d3008d;}.cls-8{fill:#e573b5;}.cls-10{fill:#396caa;}.cls-11{fill:#274f89;}.cls-12{fill:#ffc2b0;}.cls-13{fill:#fafdff;}.cls-14{opacity:0.4;}</style></defs><path class="cls-1" d="M239.3,250.54l17.88-10.33a7.05,7.05,0,0,1,6.36,0l49.35,28.49c1.76,1,1.76,2.67,0,3.68L295,282.7a7,7,0,0,1-6.36,0L239.3,254.21C237.54,253.2,237.54,251.55,239.3,250.54Z"/><path class="cls-1" d="M271.22,231.71l17.88-10.32a7,7,0,0,1,6.37,0l49.35,28.49c1.75,1,1.75,2.66,0,3.67l-17.88,10.33a7.07,7.07,0,0,1-6.37,0l-49.35-28.5C269.47,234.37,269.47,232.72,271.22,231.71Z"/><path class="cls-1" d="M162.83,370.25l57.77-32.94c2.11-1.22,1.84-3.35-.59-4.76l-33.24-19.19c-2.44-1.41-6.13-1.56-8.24-.34L120.76,346c-2.11,1.22-1.85,3.35.59,4.76l33.24,19.18C157,371.31,160.72,371.47,162.83,370.25Z"/><path class="cls-2" d="M270.63,220.4c-3.11,1.79-3.11,4.71,0,6.51l52.86,30.52a3.45,3.45,0,0,0,3.1,0,1,1,0,0,0,0-1.79l-52.86-30.52c-1.4-.81-1.4-2.13,0-2.93l5.12-3c-.57-.86-1.08-1.75-1.59-2.66Z"/><path class="cls-3" d="M345.49,244.72l-52.85-30.51a12.46,12.46,0,0,0-11.28,0l-4.1,2.36c.51.91,1,1.8,1.59,2.66l5.61-3.24a5.61,5.61,0,0,1,5.08,0l52.86,30.52a3.43,3.43,0,0,0,3.09,0C346.35,246,346.35,245.22,345.49,244.72Z"/><polygon class="cls-3" points="346.13 245.68 346.13 171.35 290.75 140.48 283 139.97 275.51 144.82 270.91 148.82 324.88 234.4 342.5 244.78 346.13 245.68"/><polygon class="cls-4" points="325.64 255.06 342.2 245.51 342.2 173.68 325.13 181.61 325.64 255.06"/><polygon class="cls-2" points="268.3 149.4 268.3 223.6 326.45 256.86 327.23 256.55 327.23 182.24 268.3 149.4"/><path class="cls-5" d="M301,150l-11.56-6.64a5.7,5.7,0,0,0-4.78.14l-10.73,6.19a1.65,1.65,0,0,0-1,1.77l29.2,17.45,23.46,14.39,16.61-9.63Z"/><path class="cls-3" d="M325.13,181.07v76.72a3.15,3.15,0,0,0,1.46-.36,1.08,1.08,0,0,0,.63-.88h0v0h0v-74.3Z"/><polygon class="cls-5" points="346.13 172.28 346.13 171.35 345.84 171.35 345.75 171.99 346.13 172.28"/><polygon class="cls-5" points="327.23 183.2 327.23 182.25 326.94 182.65 327.23 183.2"/><path class="cls-2" d="M323.49,183.11,270.63,152.6c-3.11-1.8-3.11-4.72,0-6.51l10.73-6.2a12.52,12.52,0,0,1,11.28,0l52.85,30.52c.86.49.86,1.29,0,1.79a3.43,3.43,0,0,1-3.09,0l-52.86-30.52a5.61,5.61,0,0,0-5.08,0l-10.73,6.19c-1.4.81-1.4,2.13,0,2.94l52.86,30.52a.94.94,0,0,1,0,1.78A3.39,3.39,0,0,1,323.49,183.11Z"/><polygon class="cls-5" points="309.71 218.29 282.25 202.44 282.25 174.9 309.71 190.76 309.71 218.29"/><path class="cls-5" d="M345.49,172.2a3.43,3.43,0,0,1-3.09,0l-52.86-30.52a5.61,5.61,0,0,0-5.08,0l-10.73,6.19c-.92.53-1.23,1.28-1,2a2.16,2.16,0,0,1,1-1l10.73-6.19a5.61,5.61,0,0,1,5.08,0l52.86,30.52a3.43,3.43,0,0,0,3.09,0c.65-.38.81-.93.47-1.39A1.38,1.38,0,0,1,345.49,172.2Z"/><path class="cls-5" d="M326.59,183.11a3.39,3.39,0,0,1-3.1,0L270.63,152.6a4.3,4.3,0,0,1-2.28-2.77c-.24,1.34.51,2.73,2.28,3.75l52.86,30.51a3.39,3.39,0,0,0,3.1,0c.64-.37.8-.92.46-1.38A1.31,1.31,0,0,1,326.59,183.11Z"/><path class="cls-6" d="M239.94,239.43c-3.1,1.8-3.1,4.72,0,6.52l52.86,30.51a3.39,3.39,0,0,0,3.1,0,1,1,0,0,0,0-1.79L243,244.16c-1.4-.81-1.4-2.13,0-2.94l5.12-3c-.57-.85-1.08-1.74-1.59-2.65Z"/><path class="cls-7" d="M314.8,263.76,262,233.24a12.52,12.52,0,0,0-11.28,0l-4.1,2.37c.51.91,1,1.8,1.59,2.65l5.61-3.23a5.61,5.61,0,0,1,5.08,0l52.86,30.52a3.43,3.43,0,0,0,3.09,0C315.66,265.05,315.66,264.25,314.8,263.76Z"/><polygon class="cls-7" points="315.44 264.71 315.44 190.39 260.06 159.51 252.31 159 244.82 163.85 240.22 167.85 294.19 253.44 311.81 263.82 315.44 264.71"/><polygon class="cls-8" points="294.95 274.1 311.51 264.54 311.51 192.71 294.44 200.65 294.95 274.1"/><polygon class="cls-6" points="237.61 168.43 237.61 242.63 295.76 275.89 296.54 275.58 296.54 201.27 237.61 168.43"/><path class="cls-5" d="M270.32,169l-11.56-6.63a5.63,5.63,0,0,0-4.78.14l-10.73,6.19a1.64,1.64,0,0,0-1,1.76L271.44,188l23.46,14.4,16.61-9.64Z"/><path class="cls-7" d="M294.44,200.1v76.73a3.29,3.29,0,0,0,1.46-.37,1.07,1.07,0,0,0,.63-.88h0v-74.3Z"/><polygon class="cls-5" points="315.44 191.32 315.44 190.39 315.15 190.39 315.06 191.02 315.44 191.32"/><polygon class="cls-5" points="296.54 202.23 296.54 201.28 296.25 201.69 296.54 202.23"/><path class="cls-6" d="M292.8,202.15l-52.86-30.52c-3.1-1.79-3.1-4.71,0-6.51l10.73-6.19a12.52,12.52,0,0,1,11.28,0l52.85,30.52a.94.94,0,0,1,0,1.78,3.37,3.37,0,0,1-3.09,0l-52.86-30.51a5.61,5.61,0,0,0-5.08,0L243,166.91c-1.4.81-1.4,2.13,0,2.94l52.86,30.51a1,1,0,0,1,0,1.79A3.45,3.45,0,0,1,292.8,202.15Z"/><polygon class="cls-5" points="279.03 237.33 251.56 221.47 251.56 193.94 279.03 209.8 279.03 237.33"/><path class="cls-5" d="M314.8,191.23a3.37,3.37,0,0,1-3.09,0l-52.86-30.51a5.61,5.61,0,0,0-5.08,0L243,166.91c-.92.53-1.23,1.28-.95,2a2.16,2.16,0,0,1,.95-1l10.73-6.19a5.61,5.61,0,0,1,5.08,0l52.86,30.51a3.37,3.37,0,0,0,3.09,0c.65-.37.81-.92.47-1.38A1.36,1.36,0,0,1,314.8,191.23Z"/><path class="cls-5" d="M295.9,202.15a3.45,3.45,0,0,1-3.1,0l-52.86-30.52a4.29,4.29,0,0,1-2.28-2.76c-.24,1.33.51,2.72,2.28,3.74l52.86,30.52a3.45,3.45,0,0,0,3.1,0c.64-.37.8-.92.46-1.38A1.54,1.54,0,0,1,295.9,202.15Z"/><path class="cls-1" d="M398.75,399.85,284.12,333.67c-3.24-1.87-2.83-5.14.91-7.3l78.05-45.05c3.75-2.16,9.41-2.4,12.65-.52L490.36,347c3.24,1.88,2.83,5.15-.91,7.31l-78.05,45C407.65,401.49,402,401.72,398.75,399.85Z"/><path class="cls-9" d="M523,220,403.26,150.88a4.79,4.79,0,0,0-4.05-.5h0l-.21.08-.06,0-4.32,1.65L398.5,154c0,.07,0,.13-.06.21L378.94,243c-1,4.44,1,9.63,4.37,11.58L500.15,322l-.42,4.95,4.73-1.83a6.64,6.64,0,0,0,3.39-4.82l19.5-88.76C528.32,227.14,526.37,222,523,220Z"/><path class="cls-10" d="M523,220,403.26,150.88a4.79,4.79,0,0,0-4.05-.5h0l-.21.08-.06,0-4.32,1.65L398.5,154c0,.07,0,.13-.06.21l-12.85,58.5,58.58,45.63,82.59-33.6A9.24,9.24,0,0,0,523,220Z"/><path class="cls-11" d="M518.47,233.64l9.11-3.88a11.41,11.41,0,0,0-3.69-9.13l-14.43,6.07Z"/><path class="cls-2" d="M495.57,326.52,375.85,257.4c-3.38-1.95-5.34-7.14-4.36-11.58L391,157.06c1-4.45,4.51-6.46,7.9-4.51l119.72,69.12c3.38,2,5.34,7.14,4.36,11.59L503.47,322C502.49,326.46,499,328.48,495.57,326.52Z"/><path class="cls-5" d="M519.75,221.25,400,152.13a4.74,4.74,0,0,0-4.72-.2,4.91,4.91,0,0,1,3.57.62l119.72,69.12c3.38,2,5.34,7.14,4.36,11.59L503.47,322a6.75,6.75,0,0,1-3.18,4.71c2-.45,3.7-2.28,4.33-5.13l19.5-88.77C525.1,228.39,523.14,223.21,519.75,221.25Z"/><path class="cls-5" d="M493,319.92l-112.6-65c-3.1-1.79-4.88-6.54-4-10.6l17.84-81.23c.9-4.07,4.13-5.91,7.23-4.12l112.59,65c3.1,1.79,4.89,6.54,4,10.6L500.2,315.8C499.31,319.86,496.08,321.71,493,319.92Z"/><path class="cls-9" d="M493,319.92l-112.6-65c-3.1-1.79-4.88-6.54-4-10.6l17.84-81.23c.9-4.07,4.13-5.91,7.23-4.12l112.59,65c3.1,1.79,4.89,6.54,4,10.6L500.2,315.8C499.31,319.86,496.08,321.71,493,319.92Z"/><path class="cls-3" d="M494,319.52l-112.6-65c-3.09-1.79-4.88-6.54-4-10.6l17.84-81.23a6.27,6.27,0,0,1,2.84-4.28c-1.78.46-3.26,2.14-3.82,4.68l-17.84,81.23c-.89,4.06.89,8.81,4,10.6l112.6,65a4.33,4.33,0,0,0,4.39.15A4.47,4.47,0,0,1,494,319.52Z"/><path class="cls-9" d="M497.22,329.53l-16.36-2.16-105.64-61c-3.38-1.95-9.3-1.71-13.21.55l-74.85,43.2-9.9-1.31v5.62h0a3.85,3.85,0,0,0,2.27,3.47L399.26,387c3.39,2,9.3,1.71,13.21-.55L494,339.43c2.2-1.27,3.3-2.91,3.23-4.44h0Z"/><path class="cls-10" d="M417.85,291l-7.5-4.33H327.83l-40.67,23.47-9.9-1.31v5.62h0a3.85,3.85,0,0,0,2.27,3.47L399.26,387a12.41,12.41,0,0,0,6.82,1.27Z"/><path class="cls-3" d="M281.65,309.4l-4.39-.58v5.62h0a3.85,3.85,0,0,0,2.27,3.47l2.11,1.22Z"/><path class="cls-11" d="M400.47,387.59a15.35,15.35,0,0,0,11.22-.7V374.37H400.47Z"/><path class="cls-2" d="M399.26,381.42,279.54,312.3c-3.38-2-3-5.37.95-7.63L362,257.62c3.91-2.26,9.83-2.5,13.21-.55l119.72,69.12c3.39,2,3,5.37-.95,7.63l-81.52,47.05C408.56,383.13,402.65,383.37,399.26,381.42Z"/><path class="cls-5" d="M494,331.77l-81.52,47.05c-3.91,2.26-9.82,2.5-13.21.55L279.54,310.25a4.44,4.44,0,0,1-2.1-2.3c-.53,1.6.14,3.22,2.1,4.35l119.72,69.12c3.39,1.95,9.3,1.71,13.21-.55L494,333.82c2.63-1.52,3.68-3.56,3.06-5.32A6.4,6.4,0,0,1,494,331.77Z"/><path class="cls-3" d="M330.46,289.42,325,286.29c-.43-.25-.38-.69.12-1l6.4-3.69a1.9,1.9,0,0,1,1.7-.07l5.41,3.13c.44.25.38.69-.12,1l-6.39,3.69A1.9,1.9,0,0,1,330.46,289.42Z"/><path class="cls-3" d="M338.82,294.25l-5.41-3.13c-.44-.25-.38-.69.12-1l6.39-3.69a1.9,1.9,0,0,1,1.7-.07l5.42,3.13c.43.25.38.68-.12,1l-6.4,3.7A1.9,1.9,0,0,1,338.82,294.25Z"/><path class="cls-3" d="M347.19,299.08,341.77,296c-.43-.25-.38-.69.12-1l6.4-3.69a1.9,1.9,0,0,1,1.7-.07l5.41,3.12c.44.26.38.69-.12,1l-6.39,3.7A1.9,1.9,0,0,1,347.19,299.08Z"/><path class="cls-3" d="M358.76,295.09,353.34,292c-.43-.25-.38-.69.12-1l5.37-3.1a1.9,1.9,0,0,1,1.7-.07l5.41,3.13c.44.25.39.69-.12,1l-5.36,3.1A1.9,1.9,0,0,1,358.76,295.09Z"/><path class="cls-3" d="M367.12,299.92l-5.41-3.13c-.44-.25-.38-.69.12-1l5.37-3.1a1.88,1.88,0,0,1,1.69-.07l5.42,3.13c.43.25.38.69-.12,1l-5.37,3.1A1.9,1.9,0,0,1,367.12,299.92Z"/><path class="cls-3" d="M375.49,304.75l-5.42-3.13c-.43-.25-.38-.69.12-1l5.37-3.1a1.9,1.9,0,0,1,1.7-.07l5.42,3.13c.43.25.38.69-.13,1l-5.36,3.1A1.9,1.9,0,0,1,375.49,304.75Z"/><path class="cls-3" d="M383.85,309.58l-5.41-3.13c-.44-.25-.38-.69.12-1l5.37-3.1a1.88,1.88,0,0,1,1.69-.07l5.42,3.13c.44.25.38.69-.12,1l-5.37,3.1A1.9,1.9,0,0,1,383.85,309.58Z"/><path class="cls-3" d="M392.22,314.41l-5.42-3.13c-.43-.25-.38-.69.12-1l5.37-3.1a1.9,1.9,0,0,1,1.7-.07l5.42,3.13c.43.25.38.69-.13,1l-5.36,3.1A1.9,1.9,0,0,1,392.22,314.41Z"/><path class="cls-3" d="M400.58,319.24l-5.41-3.13c-.44-.25-.38-.69.12-1l5.37-3.1a1.88,1.88,0,0,1,1.69-.07l5.42,3.13c.44.25.38.69-.12,1l-5.37,3.1A1.9,1.9,0,0,1,400.58,319.24Z"/><path class="cls-3" d="M409,324.07l-5.42-3.13c-.43-.25-.38-.69.12-1l5.37-3.1a1.9,1.9,0,0,1,1.7-.07l5.42,3.13c.43.25.38.69-.13,1L410.65,324A1.9,1.9,0,0,1,409,324.07Z"/><path class="cls-3" d="M417.32,328.89l-5.42-3.12c-.44-.25-.38-.69.12-1l5.37-3.1a1.88,1.88,0,0,1,1.69-.07l5.42,3.13c.44.25.38.69-.12,1L419,328.82A1.84,1.84,0,0,1,417.32,328.89Z"/><path class="cls-3" d="M425.68,333.72l-5.42-3.12c-.43-.25-.38-.69.13-1l5.36-3.1a1.9,1.9,0,0,1,1.7-.07l5.42,3.13c.43.25.38.69-.13,1l-5.36,3.09A1.87,1.87,0,0,1,425.68,333.72Z"/><path class="cls-3" d="M434.05,338.55l-5.42-3.12c-.44-.25-.38-.69.12-1l5.37-3.1a1.88,1.88,0,0,1,1.69-.07l5.42,3.13c.44.25.38.69-.12,1l-5.37,3.09A1.84,1.84,0,0,1,434.05,338.55Z"/><path class="cls-3" d="M371.08,292.8l-5.41-3.13c-.44-.25-.38-.69.12-1l5.37-3.09a1.84,1.84,0,0,1,1.69-.07l5.42,3.12c.44.25.38.69-.12,1l-5.37,3.1A1.9,1.9,0,0,1,371.08,292.8Z"/><path class="cls-3" d="M362.59,287.9l-5.41-3.13c-.44-.25-.38-.69.12-1l5.37-3.1a1.88,1.88,0,0,1,1.69-.07l5.42,3.13c.44.25.38.69-.12,1l-5.37,3.1A1.9,1.9,0,0,1,362.59,287.9Z"/><path class="cls-3" d="M354.09,283l-11.67-6.74c-.43-.25-.38-.69.13-1l5.36-3.09a1.87,1.87,0,0,1,1.7-.07l11.67,6.73c.43.25.38.69-.13,1l-5.36,3.1A1.9,1.9,0,0,1,354.09,283Z"/><path class="cls-3" d="M360,277l-9.46-5.47c-.44-.25-.38-.69.12-1l5.37-3.1a1.88,1.88,0,0,1,1.69-.07l9.47,5.47c.44.25.38.69-.12,1l-5.37,3.1A1.9,1.9,0,0,1,360,277Z"/><path class="cls-3" d="M379.45,297.63,374,294.5c-.43-.25-.38-.69.12-1l5.37-3.09a1.9,1.9,0,0,1,1.7-.08l5.42,3.13c.43.25.38.69-.13,1l-5.36,3.1A1.9,1.9,0,0,1,379.45,297.63Z"/><path class="cls-3" d="M387.81,302.46l-5.41-3.13c-.44-.25-.38-.69.12-1l5.37-3.1a1.88,1.88,0,0,1,1.69-.07l5.42,3.13c.44.25.38.69-.12,1l-5.37,3.1A1.9,1.9,0,0,1,387.81,302.46Z"/><path class="cls-3" d="M396.18,307.29l-5.42-3.13c-.43-.25-.38-.69.13-1l5.36-3.1A1.9,1.9,0,0,1,398,300l5.42,3.13c.43.25.38.69-.13,1l-5.36,3.1A1.9,1.9,0,0,1,396.18,307.29Z"/><path class="cls-3" d="M404.55,312.12,399.13,309c-.44-.25-.38-.69.12-1l5.37-3.1a1.88,1.88,0,0,1,1.69-.07l5.42,3.13c.44.25.38.69-.12,1l-5.37,3.1A1.88,1.88,0,0,1,404.55,312.12Z"/><path class="cls-3" d="M412.91,317l-5.42-3.13c-.43-.25-.38-.69.13-1l5.36-3.1a1.9,1.9,0,0,1,1.7-.07l5.42,3.13c.43.25.38.69-.13,1l-5.36,3.1A1.9,1.9,0,0,1,412.91,317Z"/><path class="cls-3" d="M421.28,321.78l-5.42-3.13c-.44-.25-.38-.69.12-1l5.37-3.1a1.88,1.88,0,0,1,1.69-.07l5.42,3.13c.44.25.38.69-.12,1l-5.37,3.1A1.88,1.88,0,0,1,421.28,321.78Z"/><path class="cls-3" d="M429.64,326.61l-5.42-3.13c-.43-.25-.38-.69.13-1l5.36-3.1a1.9,1.9,0,0,1,1.7-.07l5.42,3.13c.43.25.38.69-.13,1l-5.36,3.1A1.9,1.9,0,0,1,429.64,326.61Z"/><path class="cls-3" d="M438,331.44l-5.42-3.13c-.44-.25-.38-.69.12-1l5.37-3.1a1.88,1.88,0,0,1,1.69-.07l5.42,3.13c.44.25.38.69-.12,1l-5.37,3.1A1.88,1.88,0,0,1,438,331.44Z"/><path class="cls-3" d="M446.37,336.27,441,333.14c-.43-.25-.38-.69.13-1l5.36-3.1a1.9,1.9,0,0,1,1.7-.07l5.42,3.13c.43.25.38.69-.13,1l-5.36,3.1A1.9,1.9,0,0,1,446.37,336.27Z"/><path class="cls-3" d="M461.24,344.85,449.42,338c-.43-.25-.38-.69.12-1l5.37-3.1a1.9,1.9,0,0,1,1.7-.07l11.82,6.82c.43.26.38.69-.12,1l-5.37,3.1A1.9,1.9,0,0,1,461.24,344.85Z"/><path class="cls-3" d="M477.53,335.45l-10-5.76c-.43-.25-.38-.69.12-1l5.37-3.1a1.9,1.9,0,0,1,1.7-.07l10,5.76c.44.25.38.69-.12,1l-5.37,3.1A1.88,1.88,0,0,1,477.53,335.45Z"/><path class="cls-3" d="M394.1,296.69l-5.42-3.13c-.43-.25-.38-.69.12-1l5.37-3.1a1.9,1.9,0,0,1,1.7-.07l5.41,3.13c.44.25.38.69-.12,1l-5.36,3.1A1.9,1.9,0,0,1,394.1,296.69Z"/><path class="cls-3" d="M385.53,291.74l-5.42-3.13c-.44-.25-.38-.69.12-1l5.37-3.1a1.88,1.88,0,0,1,1.69-.07l5.42,3.13c.44.25.38.69-.12,1l-5.37,3.1A1.88,1.88,0,0,1,385.53,291.74Z"/><path class="cls-3" d="M377,286.79l-5.41-3.13c-.44-.25-.38-.69.12-1l5.36-3.1a1.9,1.9,0,0,1,1.7-.07l5.42,3.13c.43.25.38.69-.12,1l-5.37,3.1A1.9,1.9,0,0,1,377,286.79Z"/><path class="cls-3" d="M368.38,281.84,363,278.71c-.43-.25-.38-.69.12-1l5.37-3.1a1.9,1.9,0,0,1,1.7-.07l5.42,3.13c.43.25.38.69-.13,1l-5.36,3.1A1.9,1.9,0,0,1,368.38,281.84Z"/><path class="cls-3" d="M402.46,301.52l-5.41-3.13c-.44-.25-.38-.69.12-1l5.37-3.1a1.88,1.88,0,0,1,1.69-.07l5.42,3.13c.43.25.38.69-.12,1l-5.37,3.1A1.9,1.9,0,0,1,402.46,301.52Z"/><path class="cls-3" d="M410.83,306.35l-5.42-3.13c-.43-.25-.38-.69.12-1l5.37-3.1a1.9,1.9,0,0,1,1.7-.07L418,302.2c.44.25.39.69-.12,1l-5.36,3.09A1.9,1.9,0,0,1,410.83,306.35Z"/><path class="cls-3" d="M419.19,311.17l-5.41-3.12c-.44-.25-.38-.69.12-1l5.37-3.1a1.88,1.88,0,0,1,1.69-.07l5.42,3.13c.43.25.38.69-.12,1l-5.37,3.09A1.86,1.86,0,0,1,419.19,311.17Z"/><path class="cls-3" d="M427.56,316l-5.42-3.12c-.43-.25-.38-.69.12-1l5.37-3.1a1.9,1.9,0,0,1,1.7-.07l5.42,3.13c.43.25.38.69-.13,1l-5.36,3.09A1.87,1.87,0,0,1,427.56,316Z"/><path class="cls-3" d="M435.92,320.83l-5.41-3.12c-.44-.25-.38-.69.12-1l5.37-3.1a1.88,1.88,0,0,1,1.69-.07l5.42,3.13c.44.25.38.68-.12,1l-5.37,3.1A1.9,1.9,0,0,1,435.92,320.83Z"/><path class="cls-3" d="M444.29,325.66l-5.42-3.12c-.43-.26-.38-.69.12-1l5.37-3.1a1.9,1.9,0,0,1,1.7-.07l5.42,3.12c.43.26.38.69-.13,1l-5.36,3.1A1.9,1.9,0,0,1,444.29,325.66Z"/><path class="cls-3" d="M452.65,330.49l-5.41-3.12c-.44-.26-.38-.69.12-1l5.37-3.1a1.88,1.88,0,0,1,1.69-.07l5.42,3.12c.44.26.38.69-.12,1l-5.37,3.1A1.9,1.9,0,0,1,452.65,330.49Z"/><path class="cls-3" d="M461,335.32l-5.42-3.12c-.43-.26-.38-.69.12-1l5.37-3.1a1.9,1.9,0,0,1,1.7-.07l5.42,3.12c.43.26.38.69-.13,1l-5.36,3.1A1.9,1.9,0,0,1,461,335.32Z"/><path class="cls-3" d="M469.38,340.15,464,337c-.44-.25-.38-.68.12-1l5.37-3.1a1.88,1.88,0,0,1,1.69-.07l5.42,3.12c.44.25.38.69-.12,1l-5.37,3.1A1.9,1.9,0,0,1,469.38,340.15Z"/><path class="cls-3" d="M389.69,284.74l-5.41-3.13c-.44-.25-.38-.69.12-1l5.37-3.1a1.88,1.88,0,0,1,1.69-.07l5.42,3.13c.43.25.38.69-.12,1l-5.37,3.1A1.9,1.9,0,0,1,389.69,284.74Z"/><path class="cls-3" d="M381.37,279.93,376,276.81c-.43-.25-.38-.69.13-1l5.36-3.1a1.9,1.9,0,0,1,1.7-.07l5.42,3.13c.43.25.38.69-.13,1l-5.36,3.09A1.86,1.86,0,0,1,381.37,279.93Z"/><path class="cls-3" d="M373.05,275.13,367.63,272c-.43-.25-.38-.69.12-1l5.37-3.1a1.9,1.9,0,0,1,1.7-.07l5.41,3.13c.44.25.38.69-.12,1l-5.37,3.1A1.88,1.88,0,0,1,373.05,275.13Z"/><path class="cls-3" d="M364.72,270.32l-5.41-3.12c-.44-.26-.38-.69.12-1l5.37-3.1a1.88,1.88,0,0,1,1.69-.07l5.42,3.12c.43.26.38.69-.12,1l-5.37,3.1A1.9,1.9,0,0,1,364.72,270.32Z"/><path class="cls-3" d="M373.28,265.38l-5.41-3.13c-.44-.25-.38-.69.12-1l1.77-1a1.9,1.9,0,0,1,1.7-.07l5.42,3.13c.43.25.38.69-.13,1l-1.77,1A1.9,1.9,0,0,1,373.28,265.38Z"/><path class="cls-3" d="M384.14,271.65l-5.41-3.12c-.44-.26-.38-.69.12-1l1.77-1a1.9,1.9,0,0,1,1.7-.07l5.42,3.13c.43.25.38.69-.12,1l-1.78,1A1.9,1.9,0,0,1,384.14,271.65Z"/><path class="cls-3" d="M392.43,276.44,387,273.31c-.44-.25-.38-.69.12-1l1.77-1a1.9,1.9,0,0,1,1.7-.07l5.42,3.12c.43.26.38.69-.13,1l-1.77,1A1.9,1.9,0,0,1,392.43,276.44Z"/><path class="cls-3" d="M400.72,281.22l-5.41-3.12c-.44-.25-.38-.69.12-1l1.77-1a1.9,1.9,0,0,1,1.7-.07l5.42,3.13c.43.25.38.69-.13,1l-1.77,1A1.86,1.86,0,0,1,400.72,281.22Z"/><path class="cls-3" d="M409,286l-5.42-3.13c-.43-.25-.38-.69.13-1l1.77-1a1.9,1.9,0,0,1,1.7-.07l5.41,3.13c.44.25.38.69-.12,1l-1.77,1A1.9,1.9,0,0,1,409,286Z"/><path class="cls-3" d="M455.29,312.73l-5.42-3.13c-.44-.25-.38-.69.12-1l1.78-1a1.88,1.88,0,0,1,1.69-.08l5.42,3.13c.43.25.38.69-.12,1l-1.78,1A1.88,1.88,0,0,1,455.29,312.73Z"/><path class="cls-3" d="M463.58,317.51l-5.42-3.13c-.44-.25-.38-.68.12-1l1.77-1a1.9,1.9,0,0,1,1.7-.07l5.42,3.13c.43.25.38.69-.12,1l-1.78,1A1.88,1.88,0,0,1,463.58,317.51Z"/><path class="cls-3" d="M471.86,322.3l-5.41-3.13c-.44-.25-.38-.69.12-1l1.77-1a1.87,1.87,0,0,1,1.7-.07l5.42,3.12c.43.25.38.69-.12,1l-1.78,1A1.9,1.9,0,0,1,471.86,322.3Z"/><path class="cls-3" d="M480.15,327.08,474.74,324c-.44-.26-.38-.69.12-1l1.77-1a1.9,1.9,0,0,1,1.7-.07l5.42,3.13c.43.25.38.69-.13,1l-1.77,1A1.9,1.9,0,0,1,480.15,327.08Z"/><path class="cls-3" d="M398.06,289.57l-5.42-3.13c-.43-.25-.38-.69.12-1l5.37-3.1a1.9,1.9,0,0,1,1.7-.07l5.41,3.13c.44.25.39.69-.12,1l-5.36,3.1A1.9,1.9,0,0,1,398.06,289.57Z"/><path class="cls-3" d="M406.42,294.4,401,291.27c-.44-.25-.38-.69.12-1l5.37-3.1a1.88,1.88,0,0,1,1.69-.07l5.42,3.13c.44.25.38.69-.12,1l-5.37,3.1A1.9,1.9,0,0,1,406.42,294.4Z"/><path class="cls-3" d="M414.79,299.23l-5.42-3.13c-.43-.25-.38-.69.12-1l5.37-3.1a1.9,1.9,0,0,1,1.7-.07l5.42,3.13c.43.25.38.69-.13,1l-5.36,3.1A1.9,1.9,0,0,1,414.79,299.23Z"/><path class="cls-3" d="M423.15,304.06l-5.41-3.13c-.44-.25-.38-.69.12-1l5.37-3.1a1.88,1.88,0,0,1,1.69-.07l5.42,3.13c.44.25.38.69-.12,1l-5.37,3.1A1.9,1.9,0,0,1,423.15,304.06Z"/><path class="cls-3" d="M431.52,308.89l-5.42-3.13c-.43-.25-.38-.69.12-1l5.37-3.1a1.9,1.9,0,0,1,1.7-.07l5.42,3.13c.43.25.38.69-.13,1l-5.36,3.1A1.9,1.9,0,0,1,431.52,308.89Z"/><path class="cls-3" d="M439.88,313.72l-5.41-3.13c-.44-.25-.38-.69.12-1l5.37-3.1a1.88,1.88,0,0,1,1.69-.07l5.42,3.13c.44.25.38.69-.12,1l-5.37,3.1A1.9,1.9,0,0,1,439.88,313.72Z"/><path class="cls-3" d="M448.25,318.55l-5.42-3.13c-.43-.25-.38-.69.12-1l5.37-3.1a1.9,1.9,0,0,1,1.7-.07l5.42,3.13c.43.25.38.69-.13,1l-5.36,3.1A1.9,1.9,0,0,1,448.25,318.55Z"/><path class="cls-3" d="M456.61,323.38l-5.41-3.13c-.44-.25-.38-.69.12-1l5.37-3.1a1.88,1.88,0,0,1,1.69-.07l5.42,3.13c.44.25.38.69-.12,1l-5.37,3.1A1.9,1.9,0,0,1,456.61,323.38Z"/><path class="cls-3" d="M465,328.21l-5.42-3.13c-.43-.25-.38-.69.13-1l5.36-3.1a1.9,1.9,0,0,1,1.7-.07l5.42,3.13c.43.25.38.69-.13,1l-5.36,3.1A1.9,1.9,0,0,1,465,328.21Z"/><path class="cls-3" d="M350.23,290.17l-16-9.21c-.43-.26-.38-.69.12-1l5.37-3.1a1.9,1.9,0,0,1,1.7-.07L357.42,286c.44.25.38.69-.12,1l-5.37,3.1A1.9,1.9,0,0,1,350.23,290.17Z"/><path class="cls-3" d="M453,349.5l-15.95-9.21c-.44-.25-.38-.69.12-1l5.37-3.1a1.88,1.88,0,0,1,1.69-.07l16,9.21c.43.25.38.69-.12,1l-5.37,3.1A1.9,1.9,0,0,1,453,349.5Z"/><path class="cls-3" d="M419.55,340.85l-5.42-3.12c-.43-.26-.38-.69.12-1l6.4-3.7a1.88,1.88,0,0,1,1.69-.07l5.42,3.13c.44.25.38.69-.12,1l-6.39,3.69A1.9,1.9,0,0,1,419.55,340.85Z"/><path class="cls-3" d="M358.8,305.78l-8.66-5c-.44-.25-.38-.69.12-1l6.39-3.69a1.9,1.9,0,0,1,1.7-.07l8.66,5c.44.25.38.69-.12,1l-6.39,3.69A1.9,1.9,0,0,1,358.8,305.78Z"/><path class="cls-3" d="M411.49,336.2l-8.66-5c-.44-.25-.38-.69.12-1l6.39-3.69a1.9,1.9,0,0,1,1.7-.07l8.66,5c.44.25.38.69-.12,1l-6.39,3.69A1.9,1.9,0,0,1,411.49,336.2Z"/><path class="cls-3" d="M370.87,312.75l-8.66-5c-.44-.25-.38-.69.12-1l6.39-3.69a1.86,1.86,0,0,1,1.7-.07l8.66,5c.44.25.38.69-.12,1l-6.39,3.69A1.9,1.9,0,0,1,370.87,312.75Z"/><path class="cls-3" d="M370.48,303l37.66,21.74a.52.52,0,0,1,0,1l-6.52,3.77a1.86,1.86,0,0,1-1.69,0l-37.66-21.75Z"/><path class="cls-3" d="M442.93,349.61l6,3.48c.36.21.31.57-.1.81l-2.61,1.51a1.55,1.55,0,0,1-1.39,0l-6-3.48c-.35-.21-.31-.57.1-.8l2.62-1.51A1.52,1.52,0,0,1,442.93,349.61Z"/><path class="cls-3" d="M434.49,344.74l6,3.48c.35.21.31.57-.1.81l-2.62,1.51a1.55,1.55,0,0,1-1.39,0l-6-3.48c-.36-.21-.31-.57.1-.8l2.61-1.51A1.52,1.52,0,0,1,434.49,344.74Z"/><path class="cls-3" d="M426.13,339.91l6,3.48c.36.21.31.57-.1.81l-2.61,1.51a1.55,1.55,0,0,1-1.39.05l-6-3.48c-.35-.21-.31-.56.1-.8l2.62-1.51A1.52,1.52,0,0,1,426.13,339.91Z"/><path class="cls-3" d="M439.11,342.07l6,3.49c.35.2.31.56-.1.8l-2.62,1.51a1.56,1.56,0,0,1-1.39.06l-6-3.49c-.36-.2-.32-.56.1-.8l2.61-1.51A1.56,1.56,0,0,1,439.11,342.07Z"/><polygon class="cls-2" points="472.16 247.83 427.1 221.82 427.68 218.89 472.74 244.91 472.16 247.83"/><polygon class="cls-2" points="456.02 252.78 424.56 234.62 425.14 231.69 456.6 249.85 456.02 252.78"/><polygon class="cls-5" points="453.04 243.93 425.83 228.22 426.41 225.29 453.62 241 453.04 243.93"/><polygon class="cls-6" points="470.89 254.23 457.28 246.38 457.86 243.45 471.47 251.3 470.89 254.23"/><polygon class="cls-2" points="422.3 196.26 408.69 188.41 409.27 185.48 422.88 193.33 422.3 196.26"/><polygon class="cls-5" points="420.82 203.07 407.22 195.22 407.8 192.29 421.4 200.14 420.82 203.07"/><polygon class="cls-2" points="487.6 297.49 473.99 289.64 474.57 286.71 488.18 294.56 487.6 297.49"/><polygon class="cls-2" points="417.87 216.69 404.26 208.83 404.84 205.9 418.45 213.76 417.87 216.69"/><path class="cls-6" d="M447.27,218.79a1.7,1.7,0,0,1-2.45.76,2.13,2.13,0,0,1-.88-2.67,1.7,1.7,0,0,1,2.45-.76A2.13,2.13,0,0,1,447.27,218.79Z"/><path class="cls-5" d="M453.13,222.18a1.71,1.71,0,0,1-2.45.75,2.13,2.13,0,0,1-.88-2.67,1.7,1.7,0,0,1,2.45-.75A2.13,2.13,0,0,1,453.13,222.18Z"/><path class="cls-2" d="M459,225.56a1.7,1.7,0,0,1-2.45.75,2.13,2.13,0,0,1-.88-2.67,1.71,1.71,0,0,1,2.45-.75A2.13,2.13,0,0,1,459,225.56Z"/><path class="cls-6" d="M464.85,228.94a1.7,1.7,0,0,1-2.45.76,2.13,2.13,0,0,1-.88-2.67,1.7,1.7,0,0,1,2.45-.76A2.13,2.13,0,0,1,464.85,228.94Z"/><path class="cls-5" d="M365.1,348.47,331,328.79c-1-.57-.86-1.57.28-2.23l20.56-11.87a4.31,4.31,0,0,1,3.87-.16l34.08,19.67c1,.57.86,1.57-.28,2.23L369,348.31A4.31,4.31,0,0,1,365.1,348.47Z"/><rect class="cls-3" x="330.05" y="255.07" width="6.5" height="14.04" transform="translate(747.06 169.45) rotate(129.2)"/><path class="cls-3" d="M338.31,269.15a5.06,5.06,0,0,0,2.91-3.57c.24-1.44-.68-2.2-2.06-1.67a5.05,5.05,0,0,0-2.9,3.56C336,268.92,336.94,269.67,338.31,269.15Z"/><rect class="cls-3" x="318.94" y="247.51" width="10.54" height="14.34" transform="translate(726.47 164.39) rotate(129.2)"/><path class="cls-10" d="M331.71,256.59l3.68,3a8.42,8.42,0,0,1-4.11,5l-3.68-3A8.41,8.41,0,0,1,331.71,256.59Z"/><path class="cls-3" d="M329.07,263.45a8.21,8.21,0,0,0,4.71-5.77c.38-2.35-1.11-3.57-3.33-2.72a8.23,8.23,0,0,0-4.71,5.77C325.36,263.08,326.85,264.3,329.07,263.45Z"/><path class="cls-3" d="M318,254.39a8.25,8.25,0,0,0,4.71-5.78c.38-2.34-1.11-3.56-3.34-2.72a8.25,8.25,0,0,0-4.71,5.78C314.24,254,315.74,255.23,318,254.39Z"/><path class="cls-2" d="M318.26,252.54a4.65,4.65,0,0,0,2.66-3.26c.22-1.33-.63-2-1.88-1.54a4.66,4.66,0,0,0-2.67,3.26C316.16,252.33,317,253,318.26,252.54Z"/><path class="cls-2" d="M338.35,265c.53.44,1,.24,1.16-.44a2.4,2.4,0,0,0-.76-2c-.54-.43-1.06-.23-1.17.45A2.36,2.36,0,0,0,338.35,265Z"/><path class="cls-3" d="M227.69,375.74a11,11,0,0,1-5.67-1.61l-7.7-4.55a.89.89,0,0,1-.31-1.2.88.88,0,0,1,1.2-.3l7.7,4.56a9.27,9.27,0,0,0,14-8.59l-.16-2.33c-2.71-38-7.74-108.73,22.07-116.35a232.45,232.45,0,0,0,22.44-7c15.29-5.47,16.34-5.17,37.43,10.76a.87.87,0,1,1-1,1.38c-20.94-15.81-21.22-15.72-35.8-10.5a233.38,233.38,0,0,1-22.59,7c-28.4,7.27-23.44,77.06-20.77,114.55l.17,2.32a10.85,10.85,0,0,1-5.23,10.17A11,11,0,0,1,227.69,375.74Z"/><ellipse class="cls-1" cx="286.17" cy="373.55" rx="28.2" ry="16.28"/><path class="cls-9" d="M299.62,366.58a4.35,4.35,0,0,1,2.46,4.35,7.93,7.93,0,0,1-.36,2.13c-.51,1.06-2.16,2.51-4.81,1.47s-8.51-6.56-8.73-10.18C287.77,357.65,295.44,364.79,299.62,366.58Z"/><path class="cls-9" d="M284.09,377.67s.63,3.87.32,4.58a5,5,0,0,1-4.86,1.89c-2.72-.33-10.54-3-12.29-8.18-2.7-8,15.1.6,15.1.6Z"/><path class="cls-2" d="M276.44,315.84l-.6,60.38a4.22,4.22,0,0,0,3.29,4.18l.73.1a3.75,3.75,0,0,0,3.59-1.49,4.47,4.47,0,0,0,.81-2.43L285,350.8l3.85-23,5.32,40.78a3.5,3.5,0,0,0,1.46,2.69,4.08,4.08,0,0,0,2.43.66,4.49,4.49,0,0,0,3.23-1.59,3.26,3.26,0,0,0,.77-2.19L300,343.57l-.79-31.3Z"/><path class="cls-12" d="M284.26,261.8l1,5.5a2.53,2.53,0,0,1-2.06,2.4c-2.1.52-2.75-.83-2.75-.83l-1-6.2Z"/><path class="cls-12" d="M273.08,262c3.5,3.49,8.84,3.78,11.94.65s2.76-8.49-.74-12-8.85-3.78-11.94-.65S269.57,258.48,273.08,262Z"/><path class="cls-3" d="M284,267.4c.15-.06,8.9-5.69,12.13.2,5.27,9.61,5,40.55,3.3,44.56-1.55,3.71-5.39,6.44-8.09,8a16.11,16.11,0,0,1-7.84,2.23c-2.74,0-8-2.41-7.79-6,.88-16.43-.58-30.29-1.92-43.73C273.8,272.66,275.48,270.86,284,267.4Z"/><path class="cls-10" d="M288.88,327.76l5.32,40.78a3.5,3.5,0,0,0,1.46,2.69,4,4,0,0,0,.46.26c-1.11-.83-4.34-35.07-4.93-38.87S288.88,327.76,288.88,327.76Z"/><polygon class="cls-12" points="256.04 269.21 251.29 253.65 253.8 252.61 259.4 264.81 256.04 269.21"/><polygon class="cls-12" points="303.95 256.95 300.39 240.74 297.55 240.77 298.62 254.21 303.95 256.95"/><path class="cls-3" d="M273.8,272.66s-8.54,1.7-14-8.24a1.35,1.35,0,0,0-2.25-.23c-.87,1.32-2,3.35-1.43,5.55,2.65,9.72,17,11.87,19.58,17.5S273.8,272.66,273.8,272.66Z"/><path class="cls-3" d="M289.56,265.38s6.76.52,7.74-5.33a45.55,45.55,0,0,0,.68-5.85,1.17,1.17,0,0,1,1.32-1.15c1.62.2,4.13.68,4.47,1.77.51,1.62,1.46,9.57-5.22,21.76C294.18,284.58,289.56,265.38,289.56,265.38Z"/><path class="cls-12" d="M300.41,240.78l-.07-1.85a3.73,3.73,0,0,0-.55-1.84L297.92,234l-.49-.62a1.44,1.44,0,0,0-1.88-.32l-.43.27a1.78,1.78,0,0,0-.82,1.62l1,2.63-1.23-.24a.44.44,0,0,0-.51.35h0a.45.45,0,0,0,.27.48l2,.81,1.82,2.57Z"/><path class="cls-12" d="M251.22,253.73l-.57-1.76a3.79,3.79,0,0,1-.1-1.92l.71-3.53.25-.75a1.44,1.44,0,0,1,1.66-.94l.49.11a1.8,1.8,0,0,1,1.33,1.24l0,2.8,1.07-.64a.44.44,0,0,1,.6.16h0a.43.43,0,0,1-.09.54l-1.61,1.44-.94,3.41Z"/><path class="cls-10" d="M277.8,284.44c.78,3.55-1.4,31.11,5.71,37.93-2.74,0-8-2.41-7.79-6a218.13,218.13,0,0,0-.65-30.22c-2.79-3.61-10.46-5.91-15.26-10.55C260.16,275.73,277,280.92,277.8,284.44Z"/><path class="cls-5" d="M287.16,265.85l-1.22-1.25s-2,2-3.6,2.4a19.19,19.19,0,0,1-2.88.59l-.78,2.16S285,269.29,287.16,265.85Z"/><path class="cls-9" d="M278.2,259.45a1,1,0,0,1-.94,0c-.52-.27-1.36-2.32-2.43-2.17-1.69.23-4.12,3.76-7.15-1.16-1.58-2.56-.66-4-1.42-5.4,0,0,.27.79,6.87-3.24s12,.88,13.67,3.69,2.76,8.3-1.57,11.39c-.72.52-5.34-.4-5.44-.79s1.14-1,.44-1.91A1.44,1.44,0,0,0,278.2,259.45Z"/><path class="cls-3" d="M216.33,370.63a.8.8,0,0,1-.44-.13L169.4,343a.87.87,0,1,1,.88-1.49L216.77,369a.88.88,0,0,1,.31,1.19A.89.89,0,0,1,216.33,370.63Z"/><path class="cls-10" d="M119.34,329.89h0V204.18l50-13.08,9.21-5.32c2.11-1.22,5.8-1.07,8.24.34l8.59,5H222l-7.89,121.35a2.38,2.38,0,0,1-1.42,2.21l-49.87,37.63c-2.11,1.22-5.8,1.07-8.24-.34l-33.24-19.19C119.94,331.92,119.26,330.87,119.34,329.89Z"/><path class="cls-2" d="M182.35,185a9.56,9.56,0,0,1,4.42,1.16l8.59,5H222V317.12a2.4,2.4,0,0,1-1.41,2.21l-57.77,32.93a7.4,7.4,0,0,1-3.83.82l-.59-126.84Z"/><path class="cls-3" d="M162.3,352.52a9.36,9.36,0,0,1-6.59-.07V224.74h6.59Z"/><path class="cls-2" d="M162.83,226.26l57.77-32.94c2.11-1.22,1.84-3.35-.59-4.76l-33.24-19.19c-2.44-1.41-6.13-1.56-8.24-.34L120.76,202c-2.11,1.22-1.85,3.35.59,4.76l33.24,19.19C157,227.32,160.72,227.48,162.83,226.26Z"/><path class="cls-13" d="M121.35,204.39l33.24,19.19c2.44,1.41,6.13,1.56,8.24.34L220.6,191a3.22,3.22,0,0,0,1.05-.93c.73,1.16.4,2.43-1.05,3.27l-57.77,32.94c-2.11,1.22-5.8,1.06-8.24-.34l-33.24-19.19c-1.9-1.1-2.47-2.63-1.65-3.83A4.67,4.67,0,0,0,121.35,204.39Z"/><path class="cls-9" d="M161.2,212.91l38.46-22.3c1-.57.86-1.56-.28-2.22l-15.55-9a4.29,4.29,0,0,0-3.86-.16l-38.46,22.29c-1,.57-.87,1.57.28,2.23l15.55,9A4.29,4.29,0,0,0,161.2,212.91Z"/><path class="cls-2" d="M182,191.62l2.23-1.29c.13-.08.12-.22,0-.31L182,188.78a.61.61,0,0,0-.54,0L179.24,190c-.14.08-.12.22,0,.31l2.16,1.24A.62.62,0,0,0,182,191.62Z"/><path class="cls-6" d="M174.51,195.9l2.23-1.29c.14-.08.12-.22,0-.31l-2.15-1.24a.59.59,0,0,0-.53,0l-2.23,1.28c-.14.08-.12.22,0,.31l2.15,1.24A.56.56,0,0,0,174.51,195.9Z"/><path class="cls-2" d="M167.07,200.18l2.23-1.29c.13-.08.12-.22,0-.31l-2.15-1.24a.61.61,0,0,0-.54,0l-2.23,1.28c-.13.08-.12.22,0,.31l2.15,1.25A.61.61,0,0,0,167.07,200.18Z"/><path class="cls-2" d="M159.62,204.46l2.23-1.29c.14-.08.12-.21,0-.31l-2.15-1.24a.59.59,0,0,0-.53,0l-2.23,1.29c-.14.08-.12.21,0,.3l2.15,1.25A.59.59,0,0,0,159.62,204.46Z"/><path class="cls-3" d="M199.66,190.61l0,0a2.29,2.29,0,0,0-.23-.16l-15.55-9a4.29,4.29,0,0,0-3.86-.16l-38.42,22.27c-.91-.65-1-1.54,0-2.07L180,179.25a4.29,4.29,0,0,1,3.86.16l15.55,9C200.52,189.05,200.64,190,199.66,190.61Z"/><path class="cls-9" d="M148.1,251.16l-21.87-12.52a5.33,5.33,0,0,1-2.23-4.25v-7.82c0-1.64,1-2.4,2.23-1.69L148.1,237.4a5.34,5.34,0,0,1,2.23,4.26v7.82C150.33,251.12,149.33,251.88,148.1,251.16Z"/><path class="cls-5" d="M125.15,224.65a2.14,2.14,0,0,0-.56,1.62v7.82a5.34,5.34,0,0,0,2.23,4.26l21.86,12.52a1.64,1.64,0,0,0,1.09.24,1.33,1.33,0,0,1-1.67,0l-21.87-12.52a5.33,5.33,0,0,1-2.23-4.25v-7.82C124,225.45,124.47,224.76,125.15,224.65Z"/><path class="cls-10" d="M141.52,242.67l-2-1.16a1.17,1.17,0,0,1-.48-.93v-2.14c0-.36.22-.52.48-.37l2,1.16a1.17,1.17,0,0,1,.49.93v2.14C142,242.66,141.79,242.82,141.52,242.67Z"/><path class="cls-5" d="M134.81,238.8l-2-1.16a1.17,1.17,0,0,1-.49-.93v-2.14c0-.36.22-.52.49-.37l2,1.16a1.16,1.16,0,0,1,.49.93v2.14C135.3,238.79,135.08,239,134.81,238.8Z"/><path class="cls-9" d="M148.1,307.67l-21.87-12.52A5.33,5.33,0,0,1,124,290.9v-7.82c0-1.65,1-2.4,2.23-1.69l21.87,12.52a5.34,5.34,0,0,1,2.23,4.26V306C150.33,307.63,149.33,308.38,148.1,307.67Z"/><path class="cls-5" d="M125.15,281.16a2.14,2.14,0,0,0-.56,1.62v7.82a5.34,5.34,0,0,0,2.23,4.26l21.86,12.52a1.58,1.58,0,0,0,1.09.23,1.32,1.32,0,0,1-1.67.06l-21.87-12.52A5.33,5.33,0,0,1,124,290.9v-7.82C124,282,124.47,281.27,125.15,281.16Z"/><path class="cls-6" d="M141.52,299.18l-2-1.16a1.19,1.19,0,0,1-.48-.93V295c0-.36.22-.52.48-.37l2,1.16a1.16,1.16,0,0,1,.49.93v2.14C142,299.17,141.79,299.33,141.52,299.18Z"/><path class="cls-5" d="M134.81,295.31l-2-1.16a1.17,1.17,0,0,1-.49-.93v-2.14c0-.36.22-.53.49-.37l2,1.16a1.16,1.16,0,0,1,.49.93v2.14C135.3,295.3,135.08,295.46,134.81,295.31Z"/><path class="cls-9" d="M148.1,335.93l-21.87-12.52a5.34,5.34,0,0,1-2.23-4.26v-7.82c0-1.64,1-2.4,2.23-1.69l21.87,12.53a5.33,5.33,0,0,1,2.23,4.25v7.82C150.33,335.88,149.33,336.64,148.1,335.93Z"/><path class="cls-5" d="M125.15,309.41a2.16,2.16,0,0,0-.56,1.63v7.82a5.33,5.33,0,0,0,2.23,4.25l21.86,12.52a1.64,1.64,0,0,0,1.09.24,1.34,1.34,0,0,1-1.67.06l-21.87-12.52a5.34,5.34,0,0,1-2.23-4.26v-7.82C124,310.22,124.47,309.52,125.15,309.41Z"/><path class="cls-10" d="M141.52,327.43l-2-1.16a1.17,1.17,0,0,1-.48-.92V323.2c0-.35.22-.52.48-.36l2,1.15a1.17,1.17,0,0,1,.49.93v2.14C142,327.42,141.79,327.59,141.52,327.43Z"/><path class="cls-5" d="M134.81,323.56l-2-1.16a1.16,1.16,0,0,1-.49-.93v-2.14c0-.36.22-.52.49-.37l2,1.16a1.17,1.17,0,0,1,.49.93v2.14C135.3,323.55,135.08,323.71,134.81,323.56Z"/><path class="cls-9" d="M148.1,279.42,126.23,266.9a5.34,5.34,0,0,1-2.23-4.26v-7.82c0-1.64,1-2.39,2.23-1.68l21.87,12.52a5.33,5.33,0,0,1,2.23,4.25v7.82C150.33,279.37,149.33,280.13,148.1,279.42Z"/><path class="cls-5" d="M125.15,252.9a2.18,2.18,0,0,0-.56,1.63v7.82a5.36,5.36,0,0,0,2.23,4.26l21.86,12.52a1.63,1.63,0,0,0,1.09.23,1.33,1.33,0,0,1-1.67.06L126.23,266.9a5.34,5.34,0,0,1-2.23-4.26v-7.82C124,253.71,124.47,253,125.15,252.9Z"/><path class="cls-10" d="M141.52,270.92l-2-1.15a1.19,1.19,0,0,1-.48-.93v-2.15c0-.35.22-.52.48-.36l2,1.16a1.15,1.15,0,0,1,.49.92v2.15C142,270.91,141.79,271.08,141.52,270.92Z"/><path class="cls-5" d="M134.81,267.05l-2-1.16a1.15,1.15,0,0,1-.49-.92v-2.15c0-.35.22-.52.49-.36l2,1.15a1.17,1.17,0,0,1,.49.93v2.14C135.3,267,135.08,267.21,134.81,267.05Z"/><path class="cls-3" d="M167,243.16,217.49,214a4.88,4.88,0,0,0,2-3.9v-9.62c0-1.51-.91-2.2-2-1.55L167,228.09a4.89,4.89,0,0,0-2,3.9v9.62C165,243.12,165.91,243.81,167,243.16Z"/><path class="cls-14" d="M168.49,239.79,216,212.33a2.5,2.5,0,0,0,1-2v-7.23c0-.77-.47-1.12-1-.79l-47.55,27.46a2.47,2.47,0,0,0-1,2V239C167.45,239.77,167.91,240.12,168.49,239.79Z"/><path class="cls-2" d="M206.13,214.4l7.1-4.1a2.42,2.42,0,0,0,1-1.92h0c0-.75-.45-1.09-1-.77l-7.1,4.1a2.4,2.4,0,0,0-1,1.93h0C205.12,214.38,205.57,214.72,206.13,214.4Z"/><path class="cls-9" d="M200.08,216.55c0,.74.52,1,1.16.67a2.57,2.57,0,0,0,1.17-2c0-.74-.52-1-1.17-.67A2.57,2.57,0,0,0,200.08,216.55Z"/><path class="cls-9" d="M196,218.91c0,.75.52,1.05,1.16.68a2.59,2.59,0,0,0,1.16-2c0-.74-.52-1-1.16-.67A2.57,2.57,0,0,0,196,218.91Z"/><path class="cls-2" d="M191.87,221.28c0,.75.53,1.05,1.17.68a2.6,2.6,0,0,0,1.16-2c0-.74-.52-1-1.16-.67A2.58,2.58,0,0,0,191.87,221.28Z"/><path class="cls-9" d="M187.77,223.65c0,.74.52,1,1.16.67a2.55,2.55,0,0,0,1.17-2c0-.74-.52-1-1.17-.67A2.57,2.57,0,0,0,187.77,223.65Z"/><path class="cls-9" d="M170.49,235.76l2.39-1.38a1.57,1.57,0,0,0,.64-1.24v-2.53c0-.47-.29-.69-.64-.48l-2.39,1.38a1.53,1.53,0,0,0-.65,1.23v2.53C169.84,235.75,170.13,236,170.49,235.76Z"/><path class="cls-3" d="M167,260.12,217.49,231a4.9,4.9,0,0,0,2-3.91v-9.62c0-1.51-.91-2.2-2-1.55L167,245.05a4.9,4.9,0,0,0-2,3.91v9.62C165,260.08,165.91,260.78,167,260.12Z"/><path class="cls-14" d="M168.49,256.75,216,229.3a2.51,2.51,0,0,0,1-2v-7.23c0-.76-.47-1.11-1-.78l-47.55,27.45a2.47,2.47,0,0,0-1,2V256C167.45,256.73,167.91,257.08,168.49,256.75Z"/><path class="cls-2" d="M206.13,231.36l7.1-4.1a2.42,2.42,0,0,0,1-1.92h0c0-.74-.45-1.08-1-.76l-7.1,4.09a2.43,2.43,0,0,0-1,1.93h0C205.12,231.34,205.57,231.68,206.13,231.36Z"/><path class="cls-5" d="M200.08,233.51c0,.74.52,1,1.16.67a2.55,2.55,0,0,0,1.17-2c0-.75-.52-1-1.17-.68A2.6,2.6,0,0,0,200.08,233.51Z"/><path class="cls-9" d="M196,235.88c0,.74.52,1,1.16.67a2.57,2.57,0,0,0,1.16-2c0-.75-.52-1-1.16-.68A2.59,2.59,0,0,0,196,235.88Z"/><path class="cls-2" d="M191.87,238.25c0,.74.53,1,1.17.67a2.57,2.57,0,0,0,1.16-2c0-.74-.52-1-1.16-.67A2.6,2.6,0,0,0,191.87,238.25Z"/><path class="cls-9" d="M187.77,240.62c0,.74.52,1,1.16.67a2.55,2.55,0,0,0,1.17-2c0-.74-.52-1-1.17-.67A2.59,2.59,0,0,0,187.77,240.62Z"/><path class="cls-9" d="M170.49,252.72l2.39-1.38a1.55,1.55,0,0,0,.64-1.23v-2.53c0-.48-.29-.7-.64-.49l-2.39,1.38a1.55,1.55,0,0,0-.65,1.24v2.52C169.84,252.71,170.13,252.93,170.49,252.72Z"/><path class="cls-3" d="M167,277.09,217.49,248a4.89,4.89,0,0,0,2-3.91v-9.62c0-1.5-.91-2.19-2-1.54L167,262a4.89,4.89,0,0,0-2,3.9v9.62C165,277.05,165.91,277.74,167,277.09Z"/><path class="cls-14" d="M168.49,273.71,216,246.26a2.5,2.5,0,0,0,1-2v-7.23c0-.77-.47-1.12-1-.79l-47.55,27.46a2.45,2.45,0,0,0-1,2v7.23C167.45,273.69,167.91,274,168.49,273.71Z"/><path class="cls-2" d="M206.13,248.32l7.1-4.09a2.44,2.44,0,0,0,1-1.93h0c0-.74-.45-1.08-1-.76l-7.1,4.1a2.4,2.4,0,0,0-1,1.92h0C205.12,248.31,205.57,248.65,206.13,248.32Z"/><path class="cls-5" d="M200.08,250.47c0,.75.52,1.05,1.16.67a2.55,2.55,0,0,0,1.17-2c0-.74-.52-1-1.17-.67A2.57,2.57,0,0,0,200.08,250.47Z"/><path class="cls-9" d="M196,252.84c0,.74.52,1,1.16.67a2.57,2.57,0,0,0,1.16-2c0-.74-.52-1-1.16-.67A2.57,2.57,0,0,0,196,252.84Z"/><path class="cls-2" d="M191.87,255.21c0,.74.53,1,1.17.67a2.57,2.57,0,0,0,1.16-2c0-.74-.52-1-1.16-.67A2.58,2.58,0,0,0,191.87,255.21Z"/><path class="cls-9" d="M187.77,257.58c0,.74.52,1,1.16.67a2.55,2.55,0,0,0,1.17-2c0-.74-.52-1.05-1.17-.67A2.57,2.57,0,0,0,187.77,257.58Z"/><path class="cls-9" d="M170.49,269.69l2.39-1.38a1.57,1.57,0,0,0,.64-1.24v-2.53c0-.47-.29-.69-.64-.49l-2.39,1.38a1.55,1.55,0,0,0-.65,1.24v2.53C169.84,269.67,170.13,269.89,170.49,269.69Z"/><path class="cls-3" d="M167,294.05l50.45-29.13a4.88,4.88,0,0,0,2-3.9V251.4c0-1.51-.91-2.2-2-1.55L167,279a4.9,4.9,0,0,0-2,3.91v9.62C165,294,165.91,294.7,167,294.05Z"/><path class="cls-14" d="M168.49,290.68,216,263.22a2.5,2.5,0,0,0,1-2V254c0-.76-.47-1.12-1-.79l-47.55,27.46a2.47,2.47,0,0,0-1,2v7.23C167.45,290.66,167.91,291,168.49,290.68Z"/><path class="cls-2" d="M206.13,265.29l7.1-4.1a2.42,2.42,0,0,0,1-1.92h0c0-.75-.45-1.09-1-.76l-7.1,4.09a2.42,2.42,0,0,0-1,1.93h0C205.12,265.27,205.57,265.61,206.13,265.29Z"/><path class="cls-9" d="M200.08,267.44c0,.74.52,1,1.16.67a2.55,2.55,0,0,0,1.17-2c0-.74-.52-1-1.17-.67A2.59,2.59,0,0,0,200.08,267.44Z"/><path class="cls-9" d="M196,269.81c0,.74.52,1,1.16.67a2.59,2.59,0,0,0,1.16-2c0-.74-.52-1-1.16-.67A2.57,2.57,0,0,0,196,269.81Z"/><path class="cls-2" d="M191.87,272.18c0,.74.53,1,1.17.67a2.59,2.59,0,0,0,1.16-2c0-.74-.52-1-1.16-.67A2.58,2.58,0,0,0,191.87,272.18Z"/><path class="cls-9" d="M187.77,274.54c0,.75.52,1,1.16.68a2.58,2.58,0,0,0,1.17-2c0-.74-.52-1-1.17-.67A2.57,2.57,0,0,0,187.77,274.54Z"/><path class="cls-2" d="M170.49,286.65l2.39-1.38a1.57,1.57,0,0,0,.64-1.23v-2.53c0-.48-.29-.7-.64-.49l-2.39,1.38a1.53,1.53,0,0,0-.65,1.23v2.53C169.84,286.64,170.13,286.86,170.49,286.65Z"/><path class="cls-3" d="M167,311l50.45-29.12a4.89,4.89,0,0,0,2-3.91v-9.62c0-1.5-.91-2.2-2-1.54L167,295.94a4.9,4.9,0,0,0-2,3.91v9.62C165,311,165.91,311.67,167,311Z"/><path class="cls-14" d="M168.49,307.64,216,280.19a2.5,2.5,0,0,0,1-2V271c0-.76-.47-1.11-1-.78l-47.55,27.45a2.47,2.47,0,0,0-1,2v7.23C167.45,307.62,167.91,308,168.49,307.64Z"/><path class="cls-2" d="M206.13,282.25l7.1-4.1a2.42,2.42,0,0,0,1-1.92h0c0-.74-.45-1.08-1-.76l-7.1,4.1a2.4,2.4,0,0,0-1,1.92h0C205.12,282.23,205.57,282.57,206.13,282.25Z"/><path class="cls-9" d="M200.08,284.4c0,.74.52,1,1.16.67a2.55,2.55,0,0,0,1.17-2c0-.74-.52-1-1.17-.67A2.57,2.57,0,0,0,200.08,284.4Z"/><path class="cls-5" d="M196,286.77c0,.74.52,1,1.16.67a2.57,2.57,0,0,0,1.16-2c0-.75-.52-1.05-1.16-.67A2.57,2.57,0,0,0,196,286.77Z"/><path class="cls-2" d="M191.87,289.14c0,.74.53,1,1.17.67a2.57,2.57,0,0,0,1.16-2c0-.75-.52-1.05-1.16-.68A2.61,2.61,0,0,0,191.87,289.14Z"/><path class="cls-5" d="M187.77,291.51c0,.74.52,1,1.16.67a2.55,2.55,0,0,0,1.17-2c0-.74-.52-1-1.17-.67A2.59,2.59,0,0,0,187.77,291.51Z"/><path class="cls-2" d="M170.49,303.61l2.39-1.38a1.55,1.55,0,0,0,.64-1.23v-2.53c0-.48-.29-.7-.64-.49l-2.39,1.38a1.55,1.55,0,0,0-.65,1.24v2.53C169.84,303.6,170.13,303.82,170.49,303.61Z"/><path class="cls-3" d="M167,328l50.45-29.13a4.89,4.89,0,0,0,2-3.91v-9.62c0-1.5-.91-2.19-2-1.54L167,312.91a4.89,4.89,0,0,0-2,3.9v9.62C165,327.94,165.91,328.63,167,328Z"/><path class="cls-14" d="M168.49,324.61,216,297.15a2.5,2.5,0,0,0,1-2v-7.23c0-.77-.47-1.12-1-.79l-47.55,27.46a2.47,2.47,0,0,0-1,2v7.23C167.45,324.58,167.91,324.94,168.49,324.61Z"/><path class="cls-2" d="M206.13,299.22l7.1-4.1a2.42,2.42,0,0,0,1-1.93h0c0-.74-.45-1.08-1-.76l-7.1,4.1a2.4,2.4,0,0,0-1,1.92h0C205.12,299.2,205.57,299.54,206.13,299.22Z"/><path class="cls-9" d="M200.08,301.36c0,.75.52,1.05,1.16.68a2.57,2.57,0,0,0,1.17-2c0-.74-.52-1-1.17-.67A2.57,2.57,0,0,0,200.08,301.36Z"/><path class="cls-9" d="M196,303.73c0,.75.52,1,1.16.67a2.57,2.57,0,0,0,1.16-2c0-.74-.52-1-1.16-.67A2.57,2.57,0,0,0,196,303.73Z"/><path class="cls-2" d="M191.87,306.1c0,.74.53,1,1.17.67a2.57,2.57,0,0,0,1.16-2c0-.74-.52-1-1.16-.67A2.58,2.58,0,0,0,191.87,306.1Z"/><path class="cls-9" d="M187.77,308.47c0,.74.52,1,1.16.67a2.55,2.55,0,0,0,1.17-2c0-.74-.52-1-1.17-.67A2.57,2.57,0,0,0,187.77,308.47Z"/><path class="cls-9" d="M170.49,320.58l2.39-1.38a1.57,1.57,0,0,0,.64-1.24v-2.53c0-.47-.29-.69-.64-.49l-2.39,1.38a1.55,1.55,0,0,0-.65,1.24v2.53C169.84,320.57,170.13,320.78,170.49,320.58Z"/><path class="cls-3" d="M167,344.94l50.45-29.13a4.88,4.88,0,0,0,2-3.9v-9.62c0-1.51-.91-2.2-2-1.55L167,329.87a4.9,4.9,0,0,0-2,3.91v9.62C165,344.9,165.91,345.59,167,344.94Z"/><path class="cls-14" d="M168.49,341.57,216,314.11a2.48,2.48,0,0,0,1-2V304.9c0-.76-.47-1.11-1-.78l-47.55,27.45a2.47,2.47,0,0,0-1,2v7.23C167.45,341.55,167.91,341.9,168.49,341.57Z"/><path class="cls-2" d="M206.13,316.18l7.1-4.1a2.42,2.42,0,0,0,1-1.92h0c0-.74-.45-1.08-1-.76l-7.1,4.09a2.42,2.42,0,0,0-1,1.93h0C205.12,316.16,205.57,316.5,206.13,316.18Z"/><path class="cls-5" d="M198.78,319.25c0,1.4,1,2,2.2,1.26a4.86,4.86,0,0,0,2.2-3.8c0-1.4-1-2-2.2-1.27A4.88,4.88,0,0,0,198.78,319.25Z"/><path class="cls-9" d="M190.29,324.22c0,.74.52,1,1.16.67a2.57,2.57,0,0,0,1.16-2c0-.75-.52-1.05-1.16-.68A2.6,2.6,0,0,0,190.29,324.22Z"/><path class="cls-2" d="M186.18,326.59c0,.74.52,1,1.17.67a2.57,2.57,0,0,0,1.16-2c0-.75-.52-1.05-1.16-.68A2.57,2.57,0,0,0,186.18,326.59Z"/><path class="cls-9" d="M182.08,329c0,.74.52,1,1.16.67a2.58,2.58,0,0,0,1.17-2c0-.74-.53-1-1.17-.67A2.59,2.59,0,0,0,182.08,329Z"/><path class="cls-2" d="M170.49,337.54l2.39-1.38a1.55,1.55,0,0,0,.64-1.23V332.4c0-.48-.29-.7-.64-.49l-2.39,1.38a1.53,1.53,0,0,0-.65,1.23v2.53C169.84,337.53,170.13,337.75,170.49,337.54Z"/><polygon class="cls-1" points="366.24 172.66 348.3 162.3 366.24 151.94 384.18 162.3 366.24 172.66"/><polygon class="cls-9" points="384.18 149.15 366.24 159.51 366.24 138.8 384.18 128.44 384.18 149.15"/><polygon class="cls-2" points="366.24 138.8 348.3 128.44 366.24 118.08 384.18 128.44 366.24 138.8"/><polygon class="cls-3" points="366.24 159.51 348.3 149.15 348.3 128.44 366.24 138.8 366.24 159.51"/><polygon class="cls-5" points="359.78 148.32 354.76 145.42 354.76 139.63 359.78 142.53 359.78 148.32"/></svg>